HIERARCHY
ROOT mixamorig:Hips
{
	OFFSET 0.000000 201.639420 0.000000
	CHANNELS 6 Xposition Yposition Zposition Xrotation Yrotation Zrotation
	JOINT mixamorig:Spine
	{
		OFFSET 0.006200 19.524994 -2.481800
		CHANNELS 3 Xrotation Yrotation Zrotation
		JOINT mixamorig:Spine1
		{
			OFFSET -0.000900 22.835007 -2.825400
			CHANNELS 3 Xrotation Yrotation Zrotation
			JOINT mixamorig:Spine2
			{
				OFFSET -0.020600 26.552490 -3.193300
				CHANNELS 3 Xrotation Yrotation Zrotation
				JOINT mixamorig:Neck
				{
					OFFSET -0.060000 30.701813 1.352200
					CHANNELS 3 Xrotation Yrotation Zrotation
					JOINT mixamorig:Head
					{
						OFFSET -0.087200 22.547607 3.670900
						CHANNELS 3 Xrotation Yrotation Zrotation
						JOINT mixamorig:HeadTop_End
						{
							OFFSET -0.830600 40.355194 7.893500
							CHANNELS 3 Xrotation Yrotation Zrotation
							End Site
							{
								OFFSET 0.000000 30.592346 0.000000
							}
						}
						JOINT mixamorig:RightEye
						{
							OFFSET -6.302100 18.118591 16.197100
							CHANNELS 3 Xrotation Yrotation Zrotation
							End Site
							{
								OFFSET 0.000000 30.592346 0.000000
							}
						}
						JOINT mixamorig:LeftEye
						{
							OFFSET 6.741500 18.382690 16.401899
							CHANNELS 3 Xrotation Yrotation Zrotation
							End Site
							{
								OFFSET 0.000000 30.592346 0.000000
							}
						}
					}
				}
				JOINT mixamorig:LeftShoulder
				{
					OFFSET 11.924900 18.230499 1.425400
					CHANNELS 3 Xrotation Yrotation Zrotation
					JOINT mixamorig:LeftArm
					{
						OFFSET 25.435989 -0.697632 -5.229300
						CHANNELS 3 Xrotation Yrotation Zrotation
						JOINT mixamorig:LeftForeArm
						{
							OFFSET 54.684776 0.000000 0.000000
							CHANNELS 3 Xrotation Yrotation Zrotation
							JOINT mixamorig:LeftHand
							{
								OFFSET 55.098175 0.000000 0.000000
								CHANNELS 3 Xrotation Yrotation Zrotation
								JOINT mixamorig:LeftHandMiddle1
								{
									OFFSET 23.369751 0.000000 0.000000
									CHANNELS 3 Xrotation Yrotation Zrotation
									JOINT mixamorig:LeftHandMiddle2
									{
										OFFSET 6.378677 0.000000 0.000000
										CHANNELS 3 Xrotation Yrotation Zrotation
										JOINT mixamorig:LeftHandMiddle3
										{
											OFFSET 6.148331 0.000000 0.000000
											CHANNELS 3 Xrotation Yrotation Zrotation
											JOINT mixamorig:LeftHandMiddle4
											{
												OFFSET 6.582504 0.000000 0.000000
												CHANNELS 3 Xrotation Yrotation Zrotation
												End Site
												{
													OFFSET -1.168900 6.395691 1.028606
												}
											}
										}
									}
								}
								JOINT mixamorig:LeftHandThumb1
								{
									OFFSET 7.235672 -3.848206 5.434273
									CHANNELS 3 Xrotation Yrotation Zrotation
									JOINT mixamorig:LeftHandThumb2
									{
										OFFSET 6.568451 -3.792297 3.792300
										CHANNELS 3 Xrotation Yrotation Zrotation
										JOINT mixamorig:LeftHandThumb3
										{
											OFFSET 6.063080 -3.500519 3.500518
											CHANNELS 3 Xrotation Yrotation Zrotation
											JOINT mixamorig:LeftHandThumb4
											{
												OFFSET 4.793182 -2.767334 2.767349
												CHANNELS 3 Xrotation Yrotation Zrotation
												End Site
												{
													OFFSET 0.101639 6.054260 1.275483
												}
											}
										}
									}
								}
								JOINT mixamorig:LeftHandIndex1
								{
									OFFSET 23.101074 -0.309540 4.992809
									CHANNELS 3 Xrotation Yrotation Zrotation
									JOINT mixamorig:LeftHandIndex2
									{
										OFFSET 6.226883 0.000000 0.000000
										CHANNELS 3 Xrotation Yrotation Zrotation
										JOINT mixamorig:LeftHandIndex3
										{
											OFFSET 6.094330 0.000000 0.000000
											CHANNELS 3 Xrotation Yrotation Zrotation
											JOINT mixamorig:LeftHandIndex4
											{
												OFFSET 5.482605 0.000000 0.000000
												CHANNELS 3 Xrotation Yrotation Zrotation
												End Site
												{
													OFFSET -1.427902 5.233032 0.797164
												}
											}
										}
									}
								}
								JOINT mixamorig:LeftHandRing1
								{
									OFFSET 22.299240 0.021149 -3.964172
									CHANNELS 3 Xrotation Yrotation Zrotation
									JOINT mixamorig:LeftHandRing2
									{
										OFFSET 6.321869 0.000000 0.000000
										CHANNELS 3 Xrotation Yrotation Zrotation
										JOINT mixamorig:LeftHandRing3
										{
											OFFSET 5.899796 0.000000 0.000000
											CHANNELS 3 Xrotation Yrotation Zrotation
											JOINT mixamorig:LeftHandRing4
											{
												OFFSET 6.517899 0.000000 0.000000
												CHANNELS 3 Xrotation Yrotation Zrotation
												End Site
												{
													OFFSET -1.637299 6.232208 0.980890
												}
											}
										}
									}
								}
								JOINT mixamorig:LeftHandPinky1
								{
									OFFSET 20.463791 -0.302338 -8.562233
									CHANNELS 3 Xrotation Yrotation Zrotation
									JOINT mixamorig:LeftHandPinky2
									{
										OFFSET 6.908646 0.000000 0.000000
										CHANNELS 3 Xrotation Yrotation Zrotation
										JOINT mixamorig:LeftHandPinky3
										{
											OFFSET 4.622849 0.000000 0.000000
											CHANNELS 3 Xrotation Yrotation Zrotation
											JOINT mixamorig:LeftHandPinky4
											{
												OFFSET 5.216080 0.000000 0.000000
												CHANNELS 3 Xrotation Yrotation Zrotation
												End Site
												{
													OFFSET -0.606308 5.116241 0.814926
												}
											}
										}
									}
								}
							}
						}
					}
				}
				JOINT mixamorig:RightShoulder
				{
					OFFSET -12.001300 18.284088 1.348900
					CHANNELS 3 Xrotation Yrotation Zrotation
					JOINT mixamorig:RightArm
					{
						OFFSET -25.308500 -0.751312 -5.164599
						CHANNELS 3 Xrotation Yrotation Zrotation
						JOINT mixamorig:RightForeArm
						{
							OFFSET -54.684429 0.000000 0.000000
							CHANNELS 3 Xrotation Yrotation Zrotation
							JOINT mixamorig:RightHand
							{
								OFFSET -55.150291 0.000000 0.000000
								CHANNELS 3 Xrotation Yrotation Zrotation
								JOINT mixamorig:RightHandMiddle1
								{
									OFFSET -23.317566 0.000000 0.000000
									CHANNELS 3 Xrotation Yrotation Zrotation
									JOINT mixamorig:RightHandMiddle2
									{
										OFFSET -6.378403 0.000000 0.000000
										CHANNELS 3 Xrotation Yrotation Zrotation
										JOINT mixamorig:RightHandMiddle3
										{
											OFFSET -6.148193 0.000000 0.000000
											CHANNELS 3 Xrotation Yrotation Zrotation
											JOINT mixamorig:RightHandMiddle4
											{
												OFFSET -6.583389 0.000000 0.000000
												CHANNELS 3 Xrotation Yrotation Zrotation
												End Site
												{
													OFFSET 1.171692 6.395905 1.029786
												}
											}
										}
									}
								}
								JOINT mixamorig:RightHandThumb1
								{
									OFFSET -7.190521 -3.860474 5.435846
									CHANNELS 3 Xrotation Yrotation Zrotation
									JOINT mixamorig:RightHandThumb2
									{
										OFFSET -6.567429 -3.791718 3.791708
										CHANNELS 3 Xrotation Yrotation Zrotation
										JOINT mixamorig:RightHandThumb3
										{
											OFFSET -6.062469 -3.500153 3.500166
											CHANNELS 3 Xrotation Yrotation Zrotation
											JOINT mixamorig:RightHandThumb4
											{
												OFFSET -4.792618 -2.767029 2.767022
												CHANNELS 3 Xrotation Yrotation Zrotation
												End Site
												{
													OFFSET -0.100327 6.053253 1.276754
												}
											}
										}
									}
								}
								JOINT mixamorig:RightHandIndex1
								{
									OFFSET -23.048981 -0.310791 4.992554
									CHANNELS 3 Xrotation Yrotation Zrotation
									JOINT mixamorig:RightHandIndex2
									{
										OFFSET -6.227539 0.000000 0.000000
										CHANNELS 3 Xrotation Yrotation Zrotation
										JOINT mixamorig:RightHandIndex3
										{
											OFFSET -6.095047 0.000000 0.000000
											CHANNELS 3 Xrotation Yrotation Zrotation
											JOINT mixamorig:RightHandIndex4
											{
												OFFSET -5.484772 0.000000 0.000000
												CHANNELS 3 Xrotation Yrotation Zrotation
												End Site
												{
													OFFSET 1.420593 5.237305 0.797056
												}
											}
										}
									}
								}
								JOINT mixamorig:RightHandRing1
								{
									OFFSET -22.246323 0.020569 -3.963762
									CHANNELS 3 Xrotation Yrotation Zrotation
									JOINT mixamorig:RightHandRing2
									{
										OFFSET -6.322128 0.000000 0.000000
										CHANNELS 3 Xrotation Yrotation Zrotation
										JOINT mixamorig:RightHandRing3
										{
											OFFSET -5.900024 0.000000 0.000000
											CHANNELS 3 Xrotation Yrotation Zrotation
											JOINT mixamorig:RightHandRing4
											{
												OFFSET -6.518356 0.000000 0.000000
												CHANNELS 3 Xrotation Yrotation Zrotation
												End Site
												{
													OFFSET 1.636398 6.232697 0.982186
												}
											}
										}
									}
								}
								JOINT mixamorig:RightHandPinky1
								{
									OFFSET -20.411011 -0.303314 -8.561701
									CHANNELS 3 Xrotation Yrotation Zrotation
									JOINT mixamorig:RightHandPinky2
									{
										OFFSET -6.907349 0.000000 0.000000
										CHANNELS 3 Xrotation Yrotation Zrotation
										JOINT mixamorig:RightHandPinky3
										{
											OFFSET -4.623840 0.000000 0.000000
											CHANNELS 3 Xrotation Yrotation Zrotation
											JOINT mixamorig:RightHandPinky4
											{
												OFFSET -5.218353 0.000000 0.000000
												CHANNELS 3 Xrotation Yrotation Zrotation
												End Site
												{
													OFFSET 0.602097 5.118835 0.816273
												}
											}
										}
									}
								}
							}
						}
					}
				}
			}
		}
	}
	JOINT mixamorig:LeftUpLeg
	{
		OFFSET 18.168400 -13.561905 -0.039000
		CHANNELS 3 Xrotation Yrotation Zrotation
		JOINT mixamorig:LeftLeg
		{
			OFFSET 0.577358 -80.825211 -3.695000
			CHANNELS 3 Xrotation Yrotation Zrotation
			JOINT mixamorig:LeftFoot
			{
				OFFSET -0.577356 -83.370262 -6.520700
				CHANNELS 3 Xrotation Yrotation Zrotation
				JOINT mixamorig:LeftToeBase
				{
					OFFSET 0.750401 -20.798306 25.135401
					CHANNELS 3 Xrotation Yrotation Zrotation
					JOINT mixamorig:LeftToe_End
					{
						OFFSET -0.000500 0.001200 19.917799
						CHANNELS 3 Xrotation Yrotation Zrotation
						End Site
						{
							OFFSET 0.000000 19.917805 0.000000
						}
					}
				}
			}
		}
	}
	JOINT mixamorig:RightUpLeg
	{
		OFFSET -18.162500 -13.585098 -0.041000
		CHANNELS 3 Xrotation Yrotation Zrotation
		JOINT mixamorig:RightLeg
		{
			OFFSET -0.595024 -80.945297 -3.631900
			CHANNELS 3 Xrotation Yrotation Zrotation
			JOINT mixamorig:RightFoot
			{
				OFFSET 0.595024 -83.218193 -6.561200
				CHANNELS 3 Xrotation Yrotation Zrotation
				JOINT mixamorig:RightToeBase
				{
					OFFSET -0.753601 -20.807106 25.115000
					CHANNELS 3 Xrotation Yrotation Zrotation
					JOINT mixamorig:RightToe_End
					{
						OFFSET 0.000299 0.001700 19.918200
						CHANNELS 3 Xrotation Yrotation Zrotation
						End Site
						{
							OFFSET 0.000000 19.918203 0.000000
						}
					}
				}
			}
		}
	}
}
MOTION
Frames: 4
Frame Time: 0.033333
-31.685490 182.200500 -4.613159 21.221481 -3.236390 1.464686 17.351559 -3.178015 0.406891 5.734333 -1.206280 -1.767727 5.545903 -0.765321 -0.381700 -8.700626 1.278997 1.681654 -30.779558 8.283961 0.372998 -0.000000 -0.000000 0.000000 -0.000000 -0.000000 0.000000 -0.000000 -0.000000 0.000000 -18.513339 -16.566110 -3.740732 -17.064391 2.046148 -60.688669 0.000000 -48.599559 -0.000011 14.380883 -26.195065 38.832672 1.023281 6.202080 -18.171986 0.626648 2.638124 -26.720004 0.561238 2.504078 -25.261794 0.000002 0.000002 0.000002 10.283950 6.996944 -7.741148 5.532457 9.265735 -1.586053 -5.744289 10.814887 15.940850 0.000002 0.000001 -0.000000 3.870138 -0.764310 -18.741493 0.326670 1.930695 -19.205030 0.897948 3.118633 -32.118579 0.000001 0.000000 0.000001 1.454001 6.681197 -24.330042 0.119082 1.176350 -11.559285 1.672872 4.099660 -44.381333 -0.000000 0.000002 0.000003 1.005121 10.288918 -9.728418 0.213974 1.570391 -15.517112 2.034885 4.438551 -49.241337 -0.000003 0.000003 -0.000001 -26.315705 22.982905 10.382706 1.974254 -10.310253 55.861225 0.000011 56.552860 -0.000027 -1.050422 16.004342 -21.255038 -1.966932 1.501955 23.284221 0.512189 -2.125173 27.098661 0.304949 -1.659086 20.827730 0.000001 -0.000000 -0.000001 -2.079617 11.801061 6.579754 6.906982 -19.014400 -2.485775 -4.693133 -11.933222 -16.071703 0.000002 -0.000002 0.000003 -3.567054 7.688614 23.424320 0.302564 -1.652821 20.745421 0.156373 -1.197910 14.873642 0.000003 -0.000002 -0.000002 1.265600 -5.825271 26.298785 1.481764 -3.408498 46.981538 0.259460 -1.534256 19.195627 -0.000000 0.000003 0.000004 0.519585 -19.387289 32.589524 0.646194 -2.368607 30.515038 0.746187 -2.530485 32.854593 -0.000001 0.000001 0.000001 -37.836174 -3.857443 27.131940 13.802677 2.096556 1.984160 12.625647 -5.455580 -28.173875 -10.349847 -0.000002 0.000002 -0.000000 0.000000 0.000000 -58.288220 -5.518453 -2.985502 52.076187 -6.162921 -6.511858 -14.235841 0.604487 6.134272 -3.903839 0.000001 -0.000000 -0.000000 0.000001 0.000000 
-32.001881 182.428284 -4.669197 21.484563 -2.545409 1.589541 17.252037 -3.495648 0.491859 5.722586 -1.296322 -1.774295 5.534858 -0.853814 -0.386207 -8.740727 1.267338 1.669090 -30.917336 7.998549 0.406964 0.000000 -0.000000 0.000000 0.000000 -0.000000 0.000000 0.000000 -0.000000 0.000000 -18.497587 -16.796535 -3.712161 -17.394258 1.482048 -60.994962 0.000017 -49.503384 0.000023 14.835222 -26.389238 38.798797 1.025782 6.186483 -18.372234 0.641414 2.667225 -27.038837 0.561194 2.504007 -25.260958 0.000002 0.000004 0.000000 10.263697 6.913322 -7.812458 5.516279 9.171405 -1.583576 -5.744286 10.814881 15.940850 0.000000 0.000000 -0.000000 3.838556 -0.772739 -18.940133 0.338068 1.963075 -19.540379 0.897839 3.118431 -32.116485 -0.000002 0.000001 -0.000006 1.454100 6.664193 -24.529205 0.126010 1.209844 -11.892843 1.672872 4.099665 -44.381333 0.000000 -0.000002 0.000001 1.003428 10.271017 -9.926181 0.223236 1.603334 -15.851348 2.034818 4.438522 -49.240787 -0.000002 0.000003 -0.000000 -26.354799 22.919728 10.529734 1.939132 -10.699141 56.140183 -0.000009 56.343938 0.000018 -1.475370 16.042374 -21.677325 -1.915736 1.479352 22.918730 0.491627 -2.084511 26.538767 0.306889 -1.664222 20.895196 0.000000 0.000003 0.000000 -1.988436 11.603099 6.500375 6.930931 -19.217190 -2.501501 -4.679244 -12.053722 -16.096449 0.000003 0.000001 -0.000001 -3.498814 7.681458 23.052250 0.286626 -1.610141 20.185750 0.157796 -1.203209 14.941046 -0.000000 -0.000001 -0.000001 1.273879 -5.866237 25.933487 1.448558 -3.377287 46.420421 0.261276 -1.539438 19.263013 0.000000 -0.000000 0.000004 0.476397 -19.413023 32.208881 0.623227 -2.329264 29.954846 0.749169 -2.535097 32.922103 0.000000 -0.000000 0.000002 -39.034084 -3.404957 26.784787 13.434445 0.096183 2.325793 15.356005 -6.340861 -28.828890 -10.902818 -0.001874 0.127917 0.000000 -0.000000 -0.000000 -58.442165 -5.183975 -3.367835 51.920649 -6.713758 -6.196367 -14.174158 0.586908 6.144593 -3.905589 0.000001 -0.000000 -0.000000 -0.000001 -0.000000 
-32.086678 182.774902 -4.733284 21.790178 -1.937011 1.741403 17.145703 -3.688274 0.515945 5.713009 -1.350724 -1.798252 5.525953 -0.906534 -0.409819 -8.784022 1.250355 1.653263 -31.128898 7.714581 0.460616 -0.000001 0.000000 -0.000000 -0.000001 0.000000 -0.000000 -0.000001 0.000000 -0.000000 -18.489831 -17.009939 -3.708168 -17.711213 1.051283 -61.195032 0.000013 -50.225591 0.000024 15.169270 -26.393529 38.764704 1.028849 6.173883 -18.565959 0.656041 2.695636 -27.351431 0.561157 2.503929 -25.260034 0.000002 0.000001 0.000002 10.251160 6.842752 -7.881610 5.503042 9.092631 -1.581919 -5.744285 10.814887 15.940847 0.000001 -0.000004 0.000001 3.807344 -0.777862 -19.132442 0.349440 1.994828 -19.869843 0.897723 3.118238 -32.114306 -0.000002 0.000003 -0.000002 1.455081 6.650094 -24.721883 0.133027 1.242653 -12.220530 1.672875 4.099666 -44.381333 0.000001 0.000002 0.000001 1.002216 10.256058 -10.117496 0.232510 1.635652 -16.179671 2.034769 4.438463 -49.239889 0.000000 -0.000002 0.000000 -26.359676 22.888708 10.586599 1.964821 -11.149797 56.457019 -0.000013 56.330428 0.000028 -1.912170 16.213699 -22.043980 -1.864058 1.455421 22.547050 0.471119 -2.042958 25.969049 0.308883 -1.669419 20.963669 0.000001 0.000002 0.000000 -1.894049 11.397411 6.418477 6.955088 -19.421855 -2.517323 -4.664794 -12.179397 -16.122226 -0.000001 -0.000001 -0.000002 -3.429768 7.672871 22.673856 0.270828 -1.566548 19.616267 0.159243 -1.208591 15.009460 0.000002 0.000001 -0.000004 1.281879 -5.908640 25.561935 1.415082 -3.345162 45.849530 0.263100 -1.544686 19.331447 0.000006 0.000002 0.000004 0.432364 -19.439669 31.821681 0.600257 -2.288988 29.384874 0.752209 -2.539759 32.990657 -0.000001 0.000000 0.000001 -40.884546 -2.650937 26.317016 14.054030 -2.213530 3.063434 16.638836 -7.369702 -29.617353 -10.924596 -0.019648 0.593298 0.000000 0.000000 -0.000000 -58.539393 -4.826163 -3.774380 51.542882 -7.170450 -5.938233 -13.986922 0.565380 6.218227 -3.907068 0.000003 0.000000 -0.000000 -0.000000 -0.000000 
-31.808277 183.136688 -4.692467 21.988512 -1.842935 1.900133 17.095663 -3.611370 0.456231 5.710598 -1.328885 -1.829983 5.523850 -0.883876 -0.442762 -8.792178 1.242424 1.633272 -31.227536 7.655203 0.433075 -0.000001 -0.000000 0.000000 -0.000001 -0.000000 0.000000 -0.000001 -0.000000 0.000000 -18.493912 -17.069029 -3.765108 -17.863335 1.060242 -61.331349 -0.000030 -50.778881 -0.000052 15.508605 -26.361115 38.904447 1.032609 6.164419 -18.752563 0.670463 2.723342 -27.656904 0.561123 2.503840 -25.259168 -0.000000 -0.000002 -0.000002 10.248987 6.786792 -7.948311 5.493425 9.031946 -1.581759 -5.744287 10.814884 15.940847 -0.000001 0.000002 -0.000001 3.776817 -0.779442 -19.317776 0.360758 2.025845 -20.192648 0.897597 3.118058 -32.111970 0.000000 0.000003 -0.000001 1.457087 6.639048 -24.907501 0.140088 1.274779 -12.541546 1.672874 4.099668 -44.381333 0.000001 -0.000004 -0.000002 1.001695 10.244219 -10.301770 0.241775 1.667268 -16.501322 2.034674 4.438396 -49.238687 0.000000 0.000001 0.000002 -26.321910 22.978824 10.497750 2.062942 -11.377668 56.571933 -0.000002 56.433332 0.000009 -2.026850 16.343668 -21.962514 -1.812223 1.429801 22.172788 0.450894 -2.000939 25.396044 0.310922 -1.674692 21.033052 -0.000001 0.000001 -0.000001 -1.797416 11.185925 6.334787 6.979149 -19.626000 -2.533026 -4.649945 -12.309150 -16.148823 0.000000 0.000000 0.000002 -3.360163 7.662549 22.292730 0.255410 -1.522551 19.043466 0.160676 -1.214047 15.078831 -0.000002 -0.000001 0.000002 1.289654 -5.952544 25.187834 1.381757 -3.312503 45.275316 0.264976 -1.550026 19.400772 -0.000001 -0.000003 0.000001 0.388326 -19.467315 31.431711 0.577553 -2.248243 28.811644 0.755290 -2.544500 33.060072 0.000003 -0.000001 0.000001 -42.251472 -2.187479 25.840059 15.273457 -4.114587 3.747428 15.471085 -7.805407 -29.334969 -8.593582 -0.000856 0.087533 -0.000000 -0.000000 0.000000 -58.485510 -4.643389 -3.993231 51.032189 -7.161499 -5.930193 -13.697914 0.549310 6.326169 -3.908363 0.000001 -0.000002 -0.000000 0.000000 -0.000000 
